<svg width="72" height="100" viewBox="0 0 72 100" fill="none" xmlns="http://www.w3.org/2000/svg">
<g clip-path="url(#clip0_126_8)">
<path d="M36.3692 99.7474L7.50992 91.7357L1.07861 19.6028H71.7462L65.3083 91.7247L36.3692 99.7474Z" fill="#264DE4"/>
<path d="M59.7968 87.1321L65.2982 25.5005H36.4126V93.615L59.7968 87.1321Z" fill="#2965F1"/>
<path d="M15.8224 52.2537L16.6152 61.1005H36.4127V52.2537H15.8224ZM14.229 34.3476L15.0332 43.1945H36.4127V34.3476H14.229ZM36.4127 75.2299L36.3739 75.2402L26.5212 72.5798L25.8913 65.5241H17.0104L18.2498 79.415L36.3719 84.4454L36.4127 84.4344V75.2299Z" fill="#EBEBEB"/>
<path d="M17.71 0H28.4246V4.48089H22.1908V8.96177H28.4252V13.4424H17.71V0ZM30.5679 0H41.2828V3.8964H35.0487V4.67562H41.2828V13.6374H30.5681V9.54571H36.8022V8.76648H30.5676L30.5679 0ZM43.426 0H54.141V3.8964H47.9069V4.67562H54.141V13.6374H43.426V9.54571H49.6601V8.76648H43.4263V0H43.426Z" fill="white"/>
<path d="M56.9464 52.2537L58.5433 34.3476H36.3821V43.1945H48.848L48.0431 52.2537H36.3821V61.1005H47.276L46.2489 72.5742L36.3818 75.2374V84.4413L54.5184 79.415L54.6514 77.9202L56.7306 54.6294L56.9464 52.2537Z" fill="white"/>
</g>
<defs>
<clipPath id="clip0_126_8">
<rect width="70.92" height="100" fill="white" transform="translate(0.952637)"/>
</clipPath>
</defs>
</svg>
