<svg width="71" height="100" viewBox="0 0 71 100" fill="none" xmlns="http://www.w3.org/2000/svg">
<g clip-path="url(#clip0_126_2)">
<path d="M70.8263 19.6028L64.3883 91.7247L35.4493 99.7474L6.58999 91.7357L0.158691 19.6028H70.8263Z" fill="#E44D26"/>
<path d="M35.4927 93.615L58.8769 87.1321L64.3783 25.5005H35.4927V93.615Z" fill="#F16529"/>
<path d="M22.9775 43.1945H35.4927V34.3476H13.3091L13.5207 36.721L15.6952 61.1005H35.4927V52.2537H23.7861L22.9775 43.1945ZM24.9714 65.5241H16.0905L17.3299 79.415L35.452 84.4454L35.4927 84.4344V75.2299L35.454 75.2402L25.6013 72.5798L24.9714 65.5241Z" fill="#EBEBEB"/>
<path d="M6.73389 0H11.2297V4.44183H15.3425V0H19.8386V13.451H15.3428V8.94681H11.23V13.451H6.73416L6.73389 0ZM25.7505 4.46067H21.7932V0H34.207V4.46067H30.2472V13.451H25.7513V4.46067H25.7505ZM36.1771 0H40.8649L43.7486 4.72632L46.6295 0H51.3192V13.451H46.8416V6.78393L43.7486 11.5665H43.671L40.576 6.78393V13.451H36.1771V0ZM53.5566 0H58.0538V9.00499H64.3763V13.451H53.5563V0H53.5566Z" fill="white"/>
<path d="M35.4622 61.1005H46.3561L45.329 72.5742L35.4619 75.2374V84.4413L53.5985 79.415L53.7314 77.9202L55.8107 54.6294L56.0265 52.2537H35.4622V61.1005ZM35.4622 43.1728V43.1945H56.8314L57.0087 41.2061L57.4121 36.721L57.6234 34.3476H35.4622V43.1728Z" fill="white"/>
</g>
<defs>
<clipPath id="clip0_126_2">
<rect width="70.92" height="100" fill="white" transform="translate(0.0327148)"/>
</clipPath>
</defs>
</svg>
